<svg  viewBox="0 0 800 800" fill="none" xmlns="http://www.w3.org/2000/svg">
<rect x="1.42485" width="503.704" height="503.704" transform="matrix(0.712423 -0.70175 0.712423 0.70175 39.9537 406.814)" stroke="white" stroke-width="2"/>
<rect x="0.712423" width="427.262" height="427.262" transform="matrix(0.712423 -0.70175 0.712423 0.70175 94.5018 405.901)" stroke="white"/>
<path fill-rule="evenodd" clip-rule="evenodd" d="M400 770.038C400 770.038 400 785.019 384.791 785.019C399.732 785.126 400 800 400 800C400 800 400 785.019 415.209 785.019C400 785.019 400 770.038 400 770.038Z" fill="white"/>
<path fill-rule="evenodd" clip-rule="evenodd" d="M784.791 391.011C784.791 391.011 784.791 405.993 769.582 405.993C784.523 406.1 784.791 420.974 784.791 420.974C784.791 420.974 784.791 405.993 800 405.993C784.791 405.993 784.791 391.011 784.791 391.011Z" fill="white"/>
<path fill-rule="evenodd" clip-rule="evenodd" d="M400 11.9851C400 11.9851 400 26.9664 384.791 26.9664C399.732 27.0733 400 41.9476 400 41.9476C400 41.9476 400 26.9664 415.209 26.9664C400 26.9664 400 11.9851 400 11.9851Z" fill="white"/>
<path fill-rule="evenodd" clip-rule="evenodd" d="M15.2091 391.011C15.2091 391.011 15.2091 405.993 0 405.993C14.9414 406.1 15.2091 420.974 15.2091 420.974C15.2091 420.974 15.2091 405.993 30.4182 405.993C15.2091 405.993 15.2091 391.011 15.2091 391.011Z" fill="white"/>
<path d="M404.526 401.285L404.711 566.222L396.905 566.231L396.721 401.293L404.526 401.285Z" fill="#7F7F7F"/>
<path d="M455.591 570.089H344.586C342.633 570.089 340.874 569.256 339.76 567.804C338.645 566.352 338.312 564.458 338.843 562.607L338.883 562.477L395.625 388.937C396.624 385.481 399.286 385.198 400.09 385.198H400.096C400.892 385.2 403.564 385.484 404.589 389.074L461.294 562.477C461.865 564.458 461.532 566.352 460.417 567.804C459.303 569.256 457.544 570.089 455.591 570.089ZM347.109 562.4H453.071L400.087 400.372L347.109 562.4ZM400.752 389.86L397.064 391.12C397.082 391.172 397.106 391.227 397.138 391.286L400.752 389.86Z" fill="#7F7F7F"/>
<path d="M179.133 571.635H166.957C165.715 571.635 164.524 571.149 163.646 570.284C162.768 569.419 162.274 568.246 162.274 567.023C162.274 565.799 162.768 564.626 163.646 563.761C164.524 562.896 165.715 562.41 166.957 562.41H179.133C180.375 562.41 181.566 562.896 182.444 563.761C183.323 564.626 183.816 565.799 183.816 567.023C183.816 568.246 183.323 569.419 182.444 570.284C181.566 571.149 180.375 571.635 179.133 571.635Z" fill="#7F7F7F"/>
<path d="M231.522 571.635H205.696C204.454 571.635 203.262 571.149 202.384 570.284C201.506 569.419 201.013 568.246 201.013 567.023C201.013 565.799 201.506 564.626 202.384 563.761C203.262 562.896 204.454 562.41 205.696 562.41H231.522C232.764 562.41 233.955 562.896 234.833 563.761C235.711 564.626 236.205 565.799 236.205 567.023C236.205 568.246 235.711 569.419 234.833 570.284C233.955 571.149 232.764 571.635 231.522 571.635Z" fill="#7F7F7F"/>
<path d="M553.97 571.635H266.94C265.698 571.635 264.507 571.149 263.628 570.284C262.75 569.419 262.257 568.246 262.257 567.023C262.257 565.799 262.75 564.626 263.628 563.761C264.507 562.896 265.698 562.41 266.94 562.41H553.97C555.212 562.41 556.403 562.896 557.281 563.761C558.16 564.626 558.653 565.799 558.653 567.023C558.653 568.246 558.16 569.419 557.281 570.284C556.403 571.149 555.212 571.635 553.97 571.635Z" fill="#7F7F7F"/>
<path d="M603.777 571.635H588.281C587.039 571.635 585.847 571.149 584.969 570.284C584.091 569.419 583.598 568.246 583.598 567.023C583.598 565.799 584.091 564.626 584.969 563.761C585.847 562.896 587.039 562.41 588.281 562.41H603.777C605.019 562.41 606.21 562.896 607.088 563.761C607.966 564.626 608.46 565.799 608.46 567.023C608.46 568.246 607.966 569.419 607.088 570.284C606.21 571.149 605.019 571.635 603.777 571.635Z" fill="#7F7F7F"/>
<path d="M376.914 378.799H424.742V418.751H376.914V378.799Z" fill="#FCD22E"/>
<path d="M421.601 424.359H379.674C376.326 424.359 373.602 421.675 373.602 418.376V384.238C373.602 380.939 376.326 378.256 379.674 378.256H421.601C424.95 378.256 427.676 380.939 427.676 384.238V418.376C427.676 421.675 424.951 424.359 421.601 424.359ZM379.846 418.209H421.432V384.407H379.846V418.209Z" fill="#7F7F7F"/>
<path d="M323.28 261.017C311.929 291.123 277.643 306.35 246.704 295.029C215.758 283.71 199.874 250.128 211.224 220.024C222.575 189.918 256.86 174.691 287.804 186.012C318.75 197.333 334.63 230.914 323.28 261.017Z" fill="#43B8FC"/>
<path d="M279.609 221.832C301.715 236.194 311.054 262.354 304.634 285.981C309.449 282.256 313.76 277.752 317.312 272.451C335.265 245.645 327.477 209.402 299.927 191.497C272.371 173.594 235.485 180.808 217.53 207.615C213.98 212.916 211.475 218.594 209.89 224.418C229.418 209.306 257.506 207.469 279.609 221.832Z" fill="#2C8BFB"/>
<path d="M241.13 310.161C237.697 309.496 234.325 308.559 231.047 307.357C198.137 295.319 181.189 259.455 193.269 227.412C205.352 195.369 241.963 179.098 274.866 191.136C290.801 196.965 303.507 208.485 310.645 223.574C317.789 238.679 318.499 255.551 312.643 271.082C309.206 280.209 303.794 288.179 296.559 294.769L291.26 289.125C297.586 283.362 302.318 276.392 305.326 268.406C310.45 254.816 309.826 240.048 303.57 226.821C297.307 213.577 286.147 203.464 272.15 198.344C243.27 187.778 211.17 202.02 200.588 230.089C190.005 258.158 204.889 289.588 233.765 300.151C236.649 301.207 239.614 302.032 242.633 302.617L241.13 310.161Z" fill="#7F7F7F"/>
<path d="M391.406 356.27L381.377 382.871C378.043 391.712 382.616 401.535 391.591 404.817C400.56 408.105 410.538 403.596 413.872 394.76L423.901 368.157L391.406 356.27Z" fill="#DFC93D"/>
<path d="M405.258 387.361C403.979 390.745 400.157 392.472 396.715 391.217C393.28 389.957 391.528 386.193 392.803 382.802C394.082 379.412 397.904 377.685 401.346 378.947C404.787 380.207 406.54 383.972 405.258 387.361Z" fill="#7F7F7F"/>
<path d="M393.547 357.063L421.81 367.405L418.619 375.869L390.355 365.528L393.547 357.063Z" fill="#D1872C"/>
<path d="M254.383 383.237C254.024 383.237 253.668 383.167 253.336 383.032C253.004 382.896 252.703 382.698 252.449 382.448C252.195 382.197 251.994 381.9 251.857 381.573C251.72 381.246 251.649 380.896 251.65 380.542V377.851C251.65 377.071 251.335 376.324 250.776 375.772C250.216 375.221 249.457 374.911 248.666 374.911C247.874 374.911 247.115 375.221 246.555 375.772C245.996 376.324 245.682 377.071 245.682 377.851V380.542C245.682 380.896 245.611 381.246 245.474 381.573C245.337 381.9 245.136 382.197 244.882 382.447C244.629 382.697 244.327 382.896 243.996 383.031C243.664 383.167 243.309 383.237 242.95 383.237H240.215C239.823 383.236 239.435 383.312 239.073 383.46C238.712 383.608 238.383 383.824 238.106 384.097C237.829 384.37 237.609 384.694 237.46 385.05C237.31 385.407 237.233 385.789 237.233 386.175C237.233 386.561 237.31 386.943 237.46 387.3C237.609 387.656 237.829 387.98 238.106 388.253C238.383 388.526 238.712 388.742 239.073 388.89C239.435 389.038 239.823 389.114 240.215 389.113H242.95C243.309 389.113 243.664 389.183 243.996 389.319C244.327 389.454 244.629 389.653 244.882 389.903C245.136 390.153 245.337 390.45 245.474 390.777C245.611 391.104 245.682 391.454 245.682 391.808V394.501C245.682 395.281 245.997 396.028 246.557 396.579C247.117 397.13 247.876 397.44 248.668 397.44C249.06 397.44 249.447 397.363 249.809 397.216C250.171 397.068 250.5 396.852 250.777 396.579C251.053 396.306 251.273 395.982 251.423 395.626C251.573 395.269 251.65 394.887 251.65 394.501V391.808C251.649 391.454 251.72 391.104 251.857 390.777C251.994 390.45 252.195 390.153 252.449 389.902C252.703 389.652 253.004 389.454 253.336 389.318C253.668 389.183 254.024 389.113 254.383 389.113H257.119C257.511 389.114 257.899 389.038 258.261 388.89C258.623 388.742 258.952 388.526 259.229 388.253C259.506 387.98 259.726 387.656 259.876 387.3C260.026 386.943 260.103 386.561 260.102 386.175C260.103 385.789 260.025 385.407 259.876 385.05C259.726 384.694 259.506 384.37 259.229 384.097C258.952 383.824 258.623 383.608 258.261 383.46C257.899 383.313 257.511 383.237 257.119 383.237H254.383Z" fill="#2BA9FC"/>
<path d="M438.712 181.973C438.015 181.973 437.346 181.7 436.853 181.215C436.36 180.73 436.083 180.071 436.082 179.385V176.789C436.081 176.04 435.778 175.322 435.24 174.792C434.702 174.263 433.972 173.966 433.212 173.966C432.836 173.966 432.463 174.039 432.115 174.181C431.767 174.323 431.452 174.53 431.185 174.793C430.919 175.055 430.708 175.366 430.565 175.709C430.421 176.051 430.347 176.418 430.347 176.789V179.385C430.347 180.072 430.07 180.73 429.576 181.215C429.083 181.701 428.415 181.973 427.717 181.973H425.09C424.713 181.973 424.34 182.046 423.991 182.187C423.643 182.329 423.327 182.537 423.06 182.799C422.793 183.061 422.582 183.373 422.438 183.716C422.293 184.058 422.219 184.426 422.219 184.797C422.219 185.168 422.293 185.536 422.437 185.879C422.581 186.222 422.793 186.534 423.059 186.797C423.326 187.059 423.642 187.268 423.991 187.41C424.339 187.552 424.712 187.625 425.09 187.625H427.717C428.063 187.624 428.404 187.691 428.723 187.821C429.043 187.951 429.332 188.142 429.577 188.382C429.821 188.622 430.015 188.908 430.147 189.222C430.279 189.536 430.347 189.873 430.347 190.213V192.801C430.347 193.172 430.421 193.539 430.564 193.882C430.708 194.225 430.919 194.536 431.185 194.798C431.451 195.061 431.767 195.269 432.115 195.411C432.463 195.553 432.835 195.626 433.212 195.626C433.589 195.626 433.962 195.553 434.31 195.411C434.658 195.27 434.975 195.062 435.241 194.799C435.508 194.537 435.719 194.225 435.863 193.883C436.008 193.54 436.082 193.172 436.082 192.801V190.213C436.082 189.873 436.15 189.536 436.283 189.222C436.415 188.908 436.609 188.622 436.853 188.382C437.097 188.142 437.387 187.951 437.706 187.821C438.025 187.691 438.367 187.625 438.712 187.625H441.342C442.103 187.625 442.832 187.327 443.37 186.797C443.908 186.267 444.211 185.548 444.211 184.799C444.211 184.05 443.908 183.331 443.37 182.801C442.832 182.271 442.103 181.973 441.342 181.973H438.712Z" fill="#FD5C1E"/>
<path d="M134.083 256.888C133.602 256.889 133.125 256.796 132.681 256.615C132.236 256.434 131.832 256.168 131.492 255.833C131.151 255.498 130.881 255.1 130.698 254.662C130.514 254.224 130.419 253.755 130.42 253.281V249.673C130.419 248.629 129.997 247.628 129.248 246.89C128.498 246.152 127.482 245.738 126.423 245.737C125.363 245.738 124.348 246.153 123.599 246.891C122.85 247.629 122.429 248.629 122.429 249.673V253.281C122.429 253.755 122.334 254.225 122.15 254.663C121.966 255.101 121.696 255.499 121.355 255.834C121.015 256.169 120.61 256.434 120.165 256.615C119.72 256.796 119.243 256.889 118.762 256.888H115.1C114.575 256.888 114.055 256.991 113.57 257.189C113.085 257.387 112.645 257.678 112.274 258.044C111.903 258.41 111.609 258.845 111.409 259.323C111.208 259.801 111.106 260.313 111.106 260.831C111.106 261.347 111.21 261.859 111.41 262.336C111.611 262.813 111.905 263.247 112.276 263.612C112.647 263.978 113.087 264.267 113.572 264.465C114.056 264.663 114.576 264.764 115.1 264.764H118.762C119.243 264.763 119.72 264.856 120.165 265.037C120.61 265.218 121.015 265.484 121.355 265.819C121.696 266.154 121.966 266.552 122.15 266.99C122.334 267.428 122.429 267.898 122.429 268.372V271.983C122.429 273.026 122.85 274.027 123.599 274.764C124.348 275.501 125.364 275.915 126.423 275.915C127.482 275.916 128.498 275.502 129.247 274.764C129.997 274.027 130.418 273.027 130.42 271.983V268.372C130.419 267.898 130.514 267.428 130.698 266.99C130.881 266.552 131.151 266.154 131.492 265.819C131.832 265.484 132.236 265.218 132.681 265.037C133.125 264.856 133.602 264.763 134.083 264.764H137.745C138.269 264.764 138.789 264.663 139.273 264.465C139.758 264.267 140.198 263.978 140.569 263.612C140.94 263.247 141.234 262.813 141.435 262.336C141.635 261.859 141.739 261.347 141.739 260.831C141.739 260.313 141.637 259.801 141.436 259.323C141.236 258.845 140.942 258.41 140.571 258.044C140.2 257.678 139.76 257.387 139.275 257.189C138.79 256.991 138.27 256.888 137.745 256.888H134.083Z" fill="#FED62C"/>
<path d="M264.998 113.817C264.999 114.821 264.697 115.802 264.131 116.637C263.566 117.471 262.761 118.122 261.82 118.506C260.879 118.891 259.843 118.992 258.844 118.796C257.845 118.601 256.927 118.118 256.206 117.408C255.486 116.699 254.995 115.795 254.796 114.811C254.597 113.827 254.698 112.806 255.088 111.879C255.477 110.952 256.137 110.159 256.984 109.602C257.831 109.044 258.827 108.746 259.846 108.746C262.687 108.746 264.998 111.021 264.998 113.817Z" fill="#FDD72C"/>
<path d="M67.2541 144.893C67.2544 145.896 66.9526 146.877 66.3868 147.712C65.821 148.546 65.0167 149.197 64.0756 149.581C63.1345 149.965 62.0988 150.066 61.0996 149.871C60.1003 149.675 59.1824 149.192 58.4618 148.483C57.7412 147.773 57.2504 146.869 57.0514 145.885C56.8524 144.901 56.9541 143.881 57.3437 142.954C57.7333 142.026 58.3933 141.234 59.2403 140.676C60.0872 140.118 61.083 139.82 62.1018 139.82C64.9431 139.82 67.2541 142.097 67.2541 144.893Z" fill="#FD5C1E"/>
<path d="M370.502 138.005C370.502 139.35 369.96 140.64 368.994 141.592C368.028 142.543 366.718 143.077 365.353 143.077C363.987 143.077 362.677 142.543 361.711 141.592C360.746 140.64 360.203 139.35 360.203 138.005C360.204 136.659 360.747 135.369 361.713 134.418C362.679 133.467 363.989 132.933 365.355 132.933C368.191 132.934 370.502 135.209 370.502 138.005Z" fill="#53B5F1"/>
<path d="M140.414 129.342C134.075 129.342 128.92 124.263 128.92 118.021C128.92 111.777 134.076 106.697 140.414 106.697C146.751 106.697 151.907 111.777 151.907 118.021C151.907 124.263 146.751 129.342 140.414 129.342ZM140.414 109.772C135.798 109.772 132.042 113.472 132.042 118.02C132.042 122.566 135.798 126.266 140.414 126.266C145.03 126.266 148.785 122.566 148.785 118.02C148.785 113.472 145.03 109.772 140.414 109.772Z" fill="#2BA9FC"/>
<path d="M546.279 391.182L299.113 300.765L330.624 217.184L577.796 307.607L546.279 391.182Z" fill="#F5D72E"/>
<path d="M319.68 246.278L331.327 215.393L578.488 305.826L566.841 336.711L319.68 246.278Z" fill="#ED8824"/>
<path d="M296.411 179.845L338.833 195.362L292.599 318.002L250.177 302.485L296.411 179.845Z" fill="#F5D72E"/>
<path d="M285.128 209.834L296.772 178.943L339.197 194.46L327.553 225.35L285.128 209.834Z" fill="#ED8824"/>
<path d="M616.746 399.139L552.188 375.525L571.47 324.378L636.029 347.996L616.746 399.139Z" fill="#F5D72E"/>
<path d="M639.8 399.235L619.508 391.814L631.631 359.665L651.923 367.088L639.8 399.235Z" fill="#F5D72E"/>
<path d="M631.19 411.372C630.464 411.372 629.744 411.242 629.065 410.991L614.311 405.598C611.17 404.441 609.569 400.99 610.738 397.904L620.801 371.209C621.076 370.471 621.498 369.795 622.04 369.219C622.583 368.643 623.236 368.179 623.963 367.853C624.686 367.524 625.469 367.339 626.266 367.309C627.063 367.28 627.858 367.406 628.605 367.681L643.366 373.082C644.115 373.353 644.801 373.767 645.386 374.302C645.971 374.836 646.443 375.48 646.773 376.195C647.107 376.908 647.295 377.68 647.325 378.464C647.355 379.249 647.227 380.032 646.948 380.768L636.881 407.471C636.604 408.208 636.182 408.885 635.638 409.461C635.094 410.037 634.44 410.501 633.713 410.827C632.922 411.186 632.061 411.372 631.19 411.372ZM616.65 399.893L631.088 405.17L641.033 378.79L626.595 373.508L616.65 399.893Z" fill="#7F7F7F"/>
<path d="M564.779 342.199L571.907 323.298L636.463 346.918L629.336 365.819L564.779 342.199Z" fill="#ED8824"/>
<path d="M283.239 332.924C282.433 332.924 281.625 332.782 280.847 332.497L243.96 319.003C243.115 318.696 242.34 318.228 241.68 317.625C241.02 317.021 240.489 316.295 240.116 315.487C239.738 314.682 239.526 313.811 239.492 312.924C239.458 312.038 239.604 311.153 239.919 310.323L284.106 193.131C285.424 189.64 289.377 187.855 292.917 189.153L329.809 202.648C333.352 203.946 335.162 207.838 333.848 211.326L289.662 328.52C289.35 329.353 288.874 330.116 288.261 330.766C287.648 331.416 286.91 331.94 286.09 332.307C285.196 332.712 284.223 332.923 283.239 332.924ZM247.567 312.122L282.675 324.965L326.2 209.53L291.092 196.687L247.567 312.122Z" fill="#7F7F7F"/>
<path d="M536.638 406.818C535.835 406.818 535.03 406.677 534.254 406.394L534.251 406.393L292.617 317.995C291.772 317.689 290.997 317.221 290.337 316.618C289.677 316.015 289.145 315.288 288.772 314.481C288.394 313.675 288.181 312.803 288.148 311.916C288.115 311.028 288.261 310.143 288.578 309.312L318.037 231.186C318.347 230.354 318.821 229.592 319.433 228.942C320.044 228.292 320.78 227.769 321.598 227.401C322.416 227.028 323.301 226.819 324.202 226.785C325.103 226.752 326.001 226.894 326.846 227.206L568.483 315.605C572.021 316.897 573.836 320.788 572.529 324.277L543.061 402.412C542.751 403.244 542.276 404.007 541.663 404.657C541.051 405.307 540.313 405.831 539.494 406.198C538.598 406.605 537.624 406.817 536.638 406.818ZM296.225 311.114L536.074 398.859L564.876 322.488L325.024 234.742L296.225 311.114Z" fill="#7F7F7F"/>
<path d="M341.985 335.783C341.467 335.778 340.954 335.683 340.47 335.501L290.424 317.193C288.84 316.612 286.498 314.817 288.58 309.313L318.038 231.187C320.096 225.695 323.052 225.825 324.636 226.4L374.693 244.711C376.627 245.435 378.49 247.377 376.54 252.582L371.016 267.237C370.655 268.192 369.924 268.968 368.984 269.393C368.043 269.818 366.969 269.857 365.999 269.503C365.518 269.327 365.078 269.06 364.702 268.717C364.326 268.373 364.023 267.96 363.809 267.501C363.596 267.043 363.476 266.547 363.457 266.042C363.438 265.538 363.52 265.034 363.698 264.561L368.889 250.79L325.022 234.743L296.226 311.114L340.093 327.162L354.832 288.066C355.196 287.115 355.927 286.345 356.866 285.924C357.805 285.503 358.875 285.465 359.842 285.818C360.809 286.172 361.594 286.888 362.027 287.811C362.459 288.733 362.503 289.787 362.15 290.741L347.081 330.717C345.585 334.675 343.665 335.783 341.985 335.783ZM607.421 413.941C606.603 413.94 605.793 413.795 605.027 413.512L546.005 391.919C545.161 391.614 544.386 391.146 543.727 390.544C543.067 389.942 542.536 389.217 542.163 388.41C541.785 387.604 541.572 386.732 541.538 385.845C541.504 384.958 541.649 384.073 541.965 383.241L559.195 337.547C560.513 334.056 564.467 332.272 568.006 333.568L627.036 355.163C627.882 355.469 628.658 355.939 629.319 356.543C629.979 357.148 630.511 357.876 630.884 358.685C631.26 359.491 631.47 360.363 631.502 361.249C631.534 362.136 631.386 363.019 631.068 363.849L613.845 409.533C613.533 410.368 613.055 411.133 612.441 411.784C611.826 412.435 611.086 412.96 610.264 413.327C609.372 413.73 608.402 413.939 607.421 413.941ZM549.615 385.038L606.858 405.981L623.423 362.042L566.182 341.102L549.615 385.038ZM400.096 406.64C397.155 406.638 394.238 406.117 391.483 405.103C385.3 402.844 380.379 398.346 377.627 392.437C374.877 386.529 374.627 379.92 376.923 373.827L387.914 344.687L434.222 361.631L423.237 390.767C420.94 396.86 416.371 401.706 410.373 404.415C407.092 405.895 403.599 406.64 400.096 406.64ZM392.511 354.571L384.24 376.503C383.462 378.551 383.104 380.73 383.187 382.915C383.269 385.1 383.791 387.247 384.722 389.232C385.641 391.222 386.952 393.012 388.579 394.5C390.206 395.987 392.116 397.142 394.199 397.897C398.428 399.445 403.015 399.279 407.121 397.426C411.223 395.573 414.348 392.257 415.92 388.09L424.189 366.162L392.511 354.571Z" fill="#7F7F7F"/>
</svg>
