<svg viewBox="0 0 800 800" fill="none" xmlns="http://www.w3.org/2000/svg">
<rect x="1.42485" width="503.703" height="503.703" transform="matrix(0.712423 -0.70175 0.712423 0.70175 39.9537 406.814)" stroke="#454545" stroke-width="2"/>
<rect x="0.712423" width="427.261" height="427.261" transform="matrix(0.712423 -0.70175 0.712423 0.70175 94.5018 405.901)" stroke="#454545"/>
<path fill-rule="evenodd" clip-rule="evenodd" d="M400 770.037C400 770.037 400 785.019 384.791 785.019C399.732 785.126 400 800 400 800C400 800 400 785.019 415.209 785.019C400 785.019 400 770.037 400 770.037Z" fill="#454545"/>
<path fill-rule="evenodd" clip-rule="evenodd" d="M784.791 391.011C784.791 391.011 784.791 405.992 769.582 405.992C784.523 406.099 784.791 420.974 784.791 420.974C784.791 420.974 784.791 405.992 800 405.992C784.791 405.992 784.791 391.011 784.791 391.011Z" fill="#454545"/>
<path fill-rule="evenodd" clip-rule="evenodd" d="M400 11.985C400 11.985 400 26.9662 384.791 26.9662C399.732 27.0732 400 41.9475 400 41.9475C400 41.9475 400 26.9662 415.209 26.9662C400 26.9662 400 11.985 400 11.985Z" fill="#454545"/>
<path fill-rule="evenodd" clip-rule="evenodd" d="M15.2091 391.011C15.2091 391.011 15.2091 405.992 0 405.992C14.9414 406.099 15.2091 420.974 15.2091 420.974C15.2091 420.974 15.2091 405.992 30.4182 405.992C15.2091 405.992 15.2091 391.011 15.2091 391.011Z" fill="#454545"/>
<path d="M404.526 401.284L404.711 566.222L396.905 566.231L396.721 401.293L404.526 401.284Z" fill="#454545"/>
<path d="M455.591 570.088H344.586C342.633 570.088 340.874 569.256 339.76 567.804C338.645 566.352 338.312 564.458 338.843 562.607L338.883 562.476L395.625 388.936C396.624 385.48 399.286 385.198 400.09 385.198H400.096C400.892 385.199 403.564 385.484 404.589 389.074L461.294 562.476C461.865 564.457 461.532 566.352 460.417 567.804C459.303 569.256 457.544 570.088 455.591 570.088ZM347.109 562.4H453.071L400.087 400.371L347.109 562.4ZM400.752 389.859L397.064 391.12C397.082 391.172 397.106 391.227 397.138 391.286L400.752 389.859Z" fill="#454545"/>
<path d="M179.133 571.635H166.957C165.715 571.635 164.524 571.149 163.646 570.284C162.768 569.419 162.274 568.245 162.274 567.022C162.274 565.799 162.768 564.625 163.646 563.76C164.524 562.895 165.715 562.409 166.957 562.409H179.133C180.375 562.409 181.566 562.895 182.444 563.76C183.323 564.625 183.816 565.799 183.816 567.022C183.816 568.245 183.323 569.419 182.444 570.284C181.566 571.149 180.375 571.635 179.133 571.635Z" fill="#454545"/>
<path d="M231.523 571.635H205.697C204.455 571.635 203.263 571.149 202.385 570.284C201.507 569.419 201.014 568.245 201.014 567.022C201.014 565.799 201.507 564.625 202.385 563.76C203.263 562.895 204.455 562.409 205.697 562.409H231.523C232.765 562.409 233.956 562.895 234.834 563.76C235.712 564.625 236.206 565.799 236.206 567.022C236.206 568.245 235.712 569.419 234.834 570.284C233.956 571.149 232.765 571.635 231.523 571.635Z" fill="#454545"/>
<path d="M553.971 571.635H266.941C265.699 571.635 264.508 571.149 263.629 570.284C262.751 569.419 262.258 568.245 262.258 567.022C262.258 565.799 262.751 564.625 263.629 563.76C264.508 562.895 265.699 562.409 266.941 562.409H553.971C555.213 562.409 556.404 562.895 557.282 563.76C558.16 564.625 558.654 565.799 558.654 567.022C558.654 568.245 558.16 569.419 557.282 570.284C556.404 571.149 555.213 571.635 553.971 571.635Z" fill="#454545"/>
<path d="M603.777 571.635H588.281C587.039 571.635 585.847 571.149 584.969 570.284C584.091 569.419 583.598 568.245 583.598 567.022C583.598 565.799 584.091 564.625 584.969 563.76C585.847 562.895 587.039 562.409 588.281 562.409H603.777C605.019 562.409 606.21 562.895 607.088 563.76C607.966 564.625 608.46 565.799 608.46 567.022C608.46 568.245 607.966 569.419 607.088 570.284C606.21 571.149 605.019 571.635 603.777 571.635Z" fill="#454545"/>
<path d="M376.916 378.798H424.744V418.75H376.916V378.798Z" fill="#454545"/>
<path d="M421.603 424.359H379.676C376.328 424.359 373.604 421.675 373.604 418.376V384.238C373.604 380.939 376.328 378.256 379.676 378.256H421.603C424.952 378.256 427.678 380.939 427.678 384.238V418.376C427.678 421.675 424.953 424.359 421.603 424.359ZM379.848 418.208H421.434V384.407H379.848V418.208Z" fill="#454545"/>
<path d="M323.281 261.017C311.93 291.122 277.644 306.349 246.705 295.029C215.759 283.71 199.875 250.128 211.225 220.024C222.576 189.918 256.861 174.691 287.805 186.011C318.751 197.333 334.631 230.913 323.281 261.017Z" fill="#454545"/>
<path d="M279.61 221.832C301.716 236.194 311.055 262.354 304.635 285.981C309.45 282.256 313.761 277.752 317.313 272.45C335.266 245.645 327.478 209.401 299.928 191.497C272.372 173.594 235.486 180.808 217.531 207.614C213.981 212.915 211.476 218.594 209.891 224.417C229.419 209.306 257.507 207.469 279.61 221.832Z" fill="#454545"/>
<path d="M241.13 310.161C237.698 309.496 234.326 308.558 231.047 307.357C198.138 295.319 181.19 259.455 193.27 227.412C205.353 195.368 241.964 179.098 274.867 191.136C290.802 196.965 303.508 208.485 310.646 223.574C317.79 238.679 318.5 255.551 312.644 271.081C309.207 280.209 303.795 288.179 296.559 294.769L291.261 289.124C297.587 283.362 302.319 276.392 305.327 268.406C310.451 254.816 309.827 240.048 303.571 226.821C297.307 213.577 286.148 203.463 272.151 198.344C243.271 187.778 211.171 202.02 200.588 230.089C190.006 258.158 204.89 289.588 233.766 300.15C236.65 301.207 239.615 302.032 242.634 302.617L241.13 310.161Z" fill="#454545"/>
<path d="M391.406 356.27L381.377 382.87C378.043 391.712 382.616 401.535 391.591 404.816C400.56 408.105 410.538 403.596 413.872 394.76L423.901 368.157L391.406 356.27Z" fill="#454545"/>
<path d="M405.258 387.361C403.979 390.745 400.157 392.471 396.715 391.217C393.28 389.956 391.528 386.192 392.803 382.802C394.082 379.412 397.904 377.685 401.346 378.947C404.787 380.207 406.54 383.971 405.258 387.361Z" fill="#454545"/>
<path d="M393.547 357.063L421.81 367.405L418.618 375.869L390.355 365.528L393.547 357.063Z" fill="#454545"/>
<path d="M254.384 383.236C254.025 383.236 253.669 383.167 253.337 383.031C253.005 382.896 252.704 382.698 252.45 382.447C252.196 382.197 251.995 381.9 251.858 381.573C251.721 381.246 251.65 380.896 251.651 380.542V377.85C251.651 377.071 251.336 376.323 250.777 375.772C250.217 375.221 249.458 374.911 248.667 374.911C247.875 374.911 247.116 375.221 246.556 375.772C245.997 376.323 245.682 377.071 245.682 377.85V380.542C245.683 380.896 245.612 381.246 245.475 381.573C245.338 381.9 245.137 382.197 244.883 382.447C244.63 382.697 244.328 382.896 243.997 383.031C243.665 383.166 243.31 383.236 242.951 383.236H240.216C239.824 383.236 239.436 383.312 239.074 383.46C238.713 383.607 238.384 383.824 238.107 384.097C237.83 384.37 237.61 384.694 237.461 385.05C237.311 385.407 237.234 385.789 237.234 386.175C237.234 386.561 237.311 386.943 237.461 387.299C237.61 387.656 237.83 387.98 238.107 388.253C238.384 388.526 238.713 388.742 239.074 388.89C239.436 389.037 239.824 389.113 240.216 389.113H242.951C243.31 389.113 243.665 389.183 243.997 389.318C244.328 389.454 244.63 389.652 244.883 389.903C245.137 390.153 245.338 390.45 245.475 390.777C245.612 391.103 245.683 391.454 245.682 391.807V394.501C245.683 395.281 245.998 396.028 246.558 396.579C247.118 397.13 247.877 397.439 248.669 397.439C249.061 397.439 249.448 397.363 249.81 397.215C250.172 397.068 250.501 396.851 250.778 396.578C251.054 396.306 251.274 395.982 251.424 395.625C251.574 395.269 251.651 394.887 251.651 394.501V391.807C251.65 391.454 251.721 391.103 251.858 390.776C251.995 390.449 252.196 390.152 252.45 389.902C252.704 389.652 253.005 389.453 253.337 389.318C253.669 389.183 254.025 389.113 254.384 389.113H257.12C257.512 389.113 257.9 389.037 258.262 388.89C258.624 388.742 258.953 388.526 259.23 388.253C259.507 387.98 259.727 387.656 259.877 387.299C260.027 386.943 260.104 386.561 260.103 386.175C260.104 385.789 260.026 385.407 259.877 385.05C259.727 384.694 259.507 384.37 259.23 384.097C258.953 383.824 258.624 383.607 258.262 383.46C257.9 383.312 257.512 383.236 257.12 383.236H254.384Z" fill="#454545"/>
<path d="M438.714 181.973C438.017 181.973 437.348 181.7 436.855 181.215C436.362 180.73 436.085 180.071 436.084 179.385V176.789C436.083 176.04 435.78 175.321 435.242 174.792C434.704 174.263 433.974 173.966 433.214 173.966C432.838 173.966 432.465 174.039 432.117 174.181C431.769 174.322 431.453 174.53 431.187 174.792C430.921 175.055 430.71 175.366 430.567 175.708C430.423 176.051 430.349 176.418 430.349 176.789V179.385C430.349 180.071 430.072 180.73 429.578 181.215C429.085 181.701 428.417 181.973 427.719 181.973H425.091C424.715 181.973 424.342 182.045 423.993 182.187C423.645 182.329 423.329 182.537 423.062 182.799C422.795 183.061 422.584 183.373 422.439 183.715C422.295 184.058 422.221 184.426 422.221 184.797C422.221 185.168 422.295 185.536 422.439 185.879C422.583 186.222 422.795 186.534 423.061 186.797C423.328 187.059 423.644 187.267 423.993 187.41C424.341 187.552 424.714 187.625 425.091 187.625H427.719C428.065 187.624 428.406 187.691 428.725 187.821C429.044 187.951 429.334 188.141 429.579 188.382C429.823 188.622 430.017 188.907 430.149 189.222C430.281 189.536 430.349 189.872 430.349 190.212V192.801C430.349 193.172 430.423 193.539 430.566 193.882C430.71 194.224 430.921 194.536 431.187 194.798C431.453 195.061 431.769 195.269 432.117 195.411C432.465 195.553 432.837 195.626 433.214 195.626C433.591 195.626 433.964 195.553 434.312 195.411C434.66 195.269 434.976 195.061 435.243 194.799C435.51 194.537 435.721 194.225 435.865 193.882C436.01 193.539 436.084 193.172 436.084 192.801V190.212C436.084 189.872 436.152 189.536 436.285 189.222C436.417 188.908 436.611 188.622 436.855 188.382C437.099 188.142 437.389 187.951 437.708 187.821C438.027 187.691 438.369 187.624 438.714 187.625H441.344C442.105 187.625 442.834 187.327 443.372 186.797C443.91 186.267 444.212 185.548 444.212 184.799C444.212 184.049 443.91 183.331 443.372 182.801C442.834 182.271 442.105 181.973 441.344 181.973H438.714Z" fill="#454545"/>
<path d="M134.084 256.888C133.603 256.889 133.126 256.796 132.682 256.615C132.237 256.434 131.833 256.168 131.493 255.833C131.152 255.498 130.882 255.1 130.698 254.662C130.515 254.224 130.42 253.755 130.421 253.281V249.672C130.42 248.629 129.998 247.628 129.249 246.89C128.499 246.152 127.483 245.738 126.424 245.737C125.364 245.738 124.349 246.153 123.6 246.891C122.851 247.629 122.43 248.629 122.43 249.672V253.281C122.43 253.755 122.335 254.225 122.151 254.663C121.967 255.101 121.697 255.499 121.356 255.834C121.016 256.169 120.611 256.434 120.166 256.615C119.721 256.796 119.244 256.889 118.763 256.888H115.101C114.576 256.888 114.056 256.99 113.571 257.189C113.086 257.387 112.646 257.678 112.275 258.044C111.904 258.41 111.61 258.845 111.41 259.323C111.209 259.801 111.107 260.313 111.107 260.831C111.107 261.347 111.211 261.859 111.411 262.336C111.612 262.813 111.906 263.247 112.277 263.612C112.648 263.977 113.088 264.267 113.573 264.465C114.057 264.662 114.577 264.764 115.101 264.764H118.763C119.244 264.763 119.721 264.856 120.166 265.037C120.611 265.218 121.016 265.483 121.356 265.818C121.697 266.154 121.967 266.552 122.151 266.99C122.335 267.428 122.43 267.897 122.43 268.371V271.983C122.43 273.026 122.851 274.026 123.6 274.764C124.349 275.501 125.365 275.915 126.424 275.915C127.483 275.915 128.499 275.501 129.248 274.764C129.998 274.027 130.419 273.027 130.421 271.983V268.371C130.42 267.898 130.515 267.428 130.698 266.99C130.882 266.552 131.152 266.154 131.492 265.819C131.833 265.484 132.237 265.218 132.681 265.037C133.126 264.856 133.603 264.763 134.084 264.764H137.746C138.27 264.764 138.79 264.662 139.274 264.465C139.759 264.267 140.199 263.977 140.57 263.612C140.941 263.247 141.235 262.813 141.436 262.336C141.636 261.859 141.74 261.347 141.74 260.831C141.74 260.313 141.638 259.801 141.437 259.323C141.237 258.845 140.943 258.41 140.572 258.044C140.201 257.678 139.761 257.387 139.276 257.189C138.791 256.99 138.271 256.888 137.746 256.888H134.084Z" fill="#454545"/>
<path d="M264.999 113.817C265 114.821 264.698 115.802 264.132 116.637C263.567 117.471 262.762 118.122 261.821 118.506C260.88 118.891 259.844 118.991 258.845 118.796C257.846 118.601 256.928 118.118 256.207 117.408C255.487 116.699 254.996 115.795 254.797 114.811C254.597 113.827 254.699 112.806 255.089 111.879C255.478 110.952 256.138 110.159 256.985 109.601C257.832 109.044 258.828 108.746 259.847 108.746C262.688 108.746 264.999 111.021 264.999 113.817Z" fill="#454545"/>
<path d="M67.2551 144.893C67.2554 145.896 66.9535 146.877 66.3878 147.712C65.822 148.546 65.0177 149.197 64.0766 149.581C63.1355 149.965 62.0998 150.066 61.1005 149.87C60.1013 149.675 59.1834 149.192 58.4628 148.483C57.7422 147.773 57.2514 146.869 57.0524 145.885C56.8534 144.901 56.9551 143.881 57.3447 142.953C57.7343 142.026 58.3943 141.234 59.2412 140.676C60.0882 140.118 61.084 139.82 62.1027 139.82C64.9441 139.82 67.2551 142.096 67.2551 144.893Z" fill="#454545"/>
<path d="M370.504 138.005C370.504 139.35 369.962 140.64 368.996 141.591C368.03 142.543 366.72 143.077 365.355 143.077C363.989 143.077 362.679 142.543 361.713 141.591C360.748 140.64 360.205 139.35 360.205 138.005C360.206 136.659 360.749 135.369 361.715 134.418C362.681 133.467 363.991 132.933 365.357 132.933C368.193 132.934 370.504 135.209 370.504 138.005Z" fill="#454545"/>
<path d="M140.415 129.341C134.076 129.341 128.921 124.263 128.921 118.021C128.921 111.777 134.077 106.697 140.415 106.697C146.752 106.697 151.908 111.777 151.908 118.021C151.908 124.263 146.752 129.341 140.415 129.341ZM140.415 109.772C135.799 109.772 132.043 113.472 132.043 118.02C132.043 122.566 135.799 126.266 140.415 126.266C145.031 126.266 148.786 122.566 148.786 118.02C148.786 113.472 145.031 109.772 140.415 109.772Z" fill="#454545"/>
<path d="M546.279 391.182L299.113 300.764L330.624 217.184L577.796 307.606L546.279 391.182Z" fill="#454545"/>
<path d="M319.68 246.278L331.327 215.393L578.488 305.826L566.841 336.711L319.68 246.278Z" fill="#454545"/>
<path d="M296.412 179.844L338.834 195.362L292.6 318.002L250.178 302.485L296.412 179.844Z" fill="#454545"/>
<path d="M285.129 209.834L296.773 178.943L339.198 194.46L327.554 225.35L285.129 209.834Z" fill="#454545"/>
<path d="M616.748 399.139L552.189 375.525L571.472 324.378L636.031 347.996L616.748 399.139Z" fill="#454545"/>
<path d="M639.8 399.234L619.508 391.813L631.631 359.665L651.923 367.087L639.8 399.234Z" fill="#454545"/>
<path d="M631.19 411.372C630.464 411.371 629.744 411.242 629.065 410.99L614.311 405.598C611.17 404.441 609.569 400.99 610.738 397.904L620.801 371.209C621.076 370.471 621.498 369.795 622.04 369.219C622.583 368.643 623.236 368.179 623.963 367.853C624.686 367.524 625.469 367.339 626.266 367.309C627.063 367.279 627.858 367.406 628.604 367.681L643.366 373.081C644.115 373.352 644.801 373.767 645.386 374.301C645.971 374.836 646.442 375.48 646.773 376.195C647.107 376.908 647.295 377.679 647.325 378.464C647.355 379.249 647.227 380.032 646.948 380.768L636.881 407.47C636.604 408.208 636.182 408.885 635.638 409.461C635.094 410.037 634.44 410.501 633.713 410.827C632.922 411.185 632.061 411.371 631.19 411.372ZM616.65 399.892L631.088 405.17L641.033 378.789L626.595 373.507L616.65 399.892Z" fill="#454545"/>
<path d="M564.779 342.199L571.907 323.298L636.463 346.918L629.336 365.819L564.779 342.199Z" fill="#454545"/>
<path d="M283.24 332.924C282.434 332.924 281.626 332.781 280.848 332.497L243.961 319.002C243.116 318.696 242.341 318.228 241.681 317.624C241.021 317.021 240.49 316.294 240.117 315.487C239.739 314.682 239.527 313.811 239.493 312.924C239.459 312.038 239.605 311.153 239.92 310.322L284.106 193.13C285.425 189.639 289.378 187.855 292.918 189.153L329.81 202.648C333.353 203.945 335.163 207.838 333.849 211.326L289.663 328.52C289.351 329.352 288.875 330.116 288.262 330.766C287.649 331.416 286.911 331.94 286.091 332.307C285.197 332.712 284.224 332.922 283.24 332.924ZM247.568 312.121L282.676 324.965L326.201 209.53L291.093 196.687L247.568 312.121Z" fill="#454545"/>
<path d="M536.639 406.818C535.835 406.818 535.031 406.677 534.255 406.394L534.252 406.393L292.618 317.995C291.773 317.689 290.997 317.221 290.338 316.618C289.678 316.014 289.146 315.288 288.773 314.481C288.395 313.675 288.182 312.803 288.149 311.915C288.116 311.028 288.262 310.143 288.579 309.312L318.038 231.186C318.348 230.354 318.822 229.592 319.434 228.942C320.045 228.292 320.781 227.768 321.599 227.401C322.417 227.028 323.302 226.818 324.203 226.785C325.104 226.751 326.002 226.894 326.847 227.205L568.484 315.604C572.022 316.897 573.837 320.787 572.529 324.277L543.062 402.411C542.752 403.244 542.276 404.007 541.664 404.657C541.052 405.307 540.314 405.831 539.495 406.198C538.599 406.605 537.625 406.817 536.639 406.818ZM296.226 311.114L536.075 398.858L564.877 322.487L325.025 234.742L296.226 311.114Z" fill="#454545"/>
<path d="M341.986 335.783C341.468 335.778 340.955 335.682 340.471 335.501L290.425 317.193C288.841 316.611 286.499 314.817 288.581 309.313L318.039 231.186C320.097 225.695 323.053 225.825 324.637 226.4L374.694 244.711C376.628 245.435 378.491 247.377 376.541 252.582L371.017 267.236C370.656 268.192 369.925 268.967 368.985 269.392C368.044 269.817 366.97 269.857 366 269.503C365.519 269.327 365.079 269.06 364.703 268.716C364.327 268.373 364.024 267.96 363.81 267.501C363.597 267.042 363.477 266.546 363.458 266.042C363.439 265.537 363.521 265.034 363.699 264.561L368.89 250.789L325.023 234.743L296.227 311.114L340.094 327.162L354.833 288.065C355.197 287.115 355.928 286.345 356.867 285.924C357.806 285.503 358.876 285.465 359.843 285.818C360.81 286.172 361.595 286.888 362.028 287.81C362.46 288.733 362.504 289.787 362.151 290.741L347.081 330.717C345.586 334.675 343.666 335.783 341.986 335.783ZM607.421 413.941C606.604 413.94 605.793 413.795 605.028 413.512L546.006 391.919C545.161 391.613 544.387 391.146 543.728 390.544C543.068 389.942 542.537 389.216 542.164 388.41C541.785 387.604 541.573 386.732 541.539 385.845C541.505 384.957 541.65 384.072 541.965 383.24L559.196 337.546C560.514 334.055 564.468 332.272 568.006 333.567L627.036 355.162C627.883 355.469 628.659 355.938 629.319 356.543C629.98 357.148 630.512 357.876 630.884 358.685C631.261 359.491 631.471 360.362 631.503 361.249C631.534 362.135 631.387 363.019 631.069 363.849L613.846 409.533C613.534 410.367 613.056 411.132 612.441 411.784C611.827 412.435 611.087 412.959 610.265 413.327C609.373 413.73 608.403 413.939 607.421 413.941ZM549.616 385.038L606.859 405.981L623.424 362.042L566.183 341.102L549.616 385.038ZM400.097 406.64C397.156 406.637 394.239 406.117 391.484 405.103C385.301 402.843 380.38 398.346 377.628 392.437C374.878 386.529 374.628 379.919 376.924 373.827L387.915 344.687L434.223 361.631L423.238 390.767C420.941 396.86 416.372 401.706 410.373 404.415C407.093 405.895 403.6 406.64 400.097 406.64ZM392.512 354.57L384.241 376.503C383.463 378.551 383.105 380.73 383.188 382.915C383.27 385.1 383.792 387.247 384.723 389.232C385.642 391.222 386.953 393.012 388.58 394.499C390.207 395.987 392.117 397.141 394.2 397.896C398.429 399.445 403.016 399.279 407.122 397.426C411.224 395.573 414.349 392.257 415.921 388.09L424.189 366.162L392.512 354.57Z" fill="#454545"/>
</svg>
